<svg xmlns="http://www.w3.org/2000/svg" viewBox="0 0 1374.16 252.67" fill="#174177" xmlns:v="https://vecta.io/nano"><path d="M382.16 109.67c10 0 18.67 1.9 26 5.7s13.37 9 18.1 15.6 8.23 14.1 10.5 22.5 3.4 17.13 3.4 26.2c0 12.8-2.03 24.5-6.1 35.1s-10.37 19.07-18.9 25.4-19.53 9.5-33 9.5h-52c-1.07 0-2-.4-2.8-1.2s-1.2-1.73-1.2-2.8v-132c0-1.07.4-2 1.2-2.8s1.73-1.2 2.8-1.2h52zm-2 132c12.27 0 22.17-2.77 29.7-8.3s13.07-13 16.6-22.4 5.3-19.83 5.3-31.3c0-8.13-.97-15.93-2.9-23.4s-4.97-14.1-9.1-19.9-9.47-10.37-16-13.7-14.4-5-23.6-5h-46.8l1.2-1.6v127.4l-1.2-1.8h46.8zm90.6-108.6c-2.13 0-3.83-.6-5.1-1.8s-1.9-2.73-1.9-4.6v-1.6c0-1.87.67-3.4 2-4.6s3.07-1.8 5.2-1.8c1.87 0 3.43.6 4.7 1.8s1.9 2.73 1.9 4.6v1.6c0 1.87-.63 3.4-1.9 4.6s-2.9 1.8-4.9 1.8zm4 112.6c0 1.07-.4 2-1.2 2.8s-1.73 1.2-2.8 1.2c-1.2 0-2.17-.4-2.9-1.2a4.02 4.02 0 0 1-1.1-2.8v-95c0-1.07.4-2 1.2-2.8s1.73-1.2 2.8-1.2c1.2 0 2.17.4 2.9 1.2a4.02 4.02 0 0 1 1.1 2.8v95zm78.6-99c8.4 0 15.23 1.67 20.5 5s9.13 7.87 11.6 13.6 3.7 12.13 3.7 19.2v61.2c0 1.07-.4 2-1.2 2.8s-1.73 1.2-2.8 1.2c-1.2 0-2.17-.4-2.9-1.2a4.02 4.02 0 0 1-1.1-2.8v-60.4c0-5.73-.97-10.93-2.9-15.6s-5-8.4-9.2-11.2-9.7-4.2-16.5-4.2c-5.87 0-11.6 1.4-17.2 4.2s-10.23 6.54-13.9 11.2c-3.67 4.67-5.5 9.87-5.5 15.6v60.4c0 1.07-.4 2-1.2 2.8s-1.73 1.2-2.8 1.2c-1.2 0-2.17-.4-2.9-1.2a4.02 4.02 0 0 1-1.1-2.8v-91.8c0-1.07.4-2 1.2-2.8s1.73-1.2 2.8-1.2c1.2 0 2.17.4 2.9 1.2a4.02 4.02 0 0 1 1.1 2.8v19.6l-5 9.6c0-4.8 1.27-9.4 3.8-13.8s5.87-8.3 10-11.7 8.7-6.07 13.7-8 9.97-2.9 14.9-2.9zm151.6 3.2c1.2 0 2.17.4 2.9 1.2a4.02 4.02 0 0 1 1.1 2.8v91.8c0 1.07-.4 2-1.2 2.8s-1.73 1.2-2.8 1.2c-1.2 0-2.17-.4-2.9-1.2a4.02 4.02 0 0 1-1.1-2.8v-28.4l3.2-2.6c0 4.27-1.07 8.6-3.2 13s-5.07 8.4-8.8 12-8.13 6.5-13.2 8.7-10.53 3.3-16.4 3.3c-8.93 0-16.9-2.33-23.9-7s-12.5-11-16.5-19-6-17-6-27 2.03-19.1 6.1-26.9 9.6-13.93 16.6-18.4 14.9-6.7 23.7-6.7c5.73 0 11.13 1.03 16.2 3.1s9.5 4.97 13.3 8.7 6.77 8.1 8.9 13.1 3.2 10.43 3.2 16.3l-3.2-5v-29a4.02 4.02 0 0 1 1.1-2.8c.73-.8 1.7-1.2 2.9-1.2zm-42 94.2c7.47 0 14.13-1.97 20-5.9s10.47-9.33 13.8-16.2 5-14.63 5-23.3-1.67-15.77-5-22.5-7.93-12.07-13.8-16-12.53-5.9-20-5.9-13.93 1.9-19.8 5.7-10.5 9.04-13.9 15.7c-3.4 6.67-5.1 14.33-5.1 23s1.67 16.43 5 23.3 7.93 12.27 13.8 16.2 12.53 5.9 20 5.9zm73.6-10.4c-.93-1.6-1.37-2.9-1.3-3.9s.57-1.83 1.5-2.5c.67-.67 1.57-.97 2.7-.9s2.1.57 2.9 1.5c3.47 4.93 7.9 8.93 13.3 12s11.77 4.6 19.1 4.6c4.4 0 8.63-.73 12.7-2.2s7.4-3.67 10-6.6 3.9-6.53 3.9-10.8c0-4.53-1.27-8.17-3.8-10.9s-5.8-4.9-9.8-6.5-8.2-2.93-12.6-4a142.31 142.31 0 0 1-13.3-4.1c-4.2-1.53-7.9-3.47-11.1-5.8s-5.73-5.1-7.6-8.3-2.8-7-2.8-11.4c0-5.2 1.4-9.87 4.2-14s6.73-7.37 11.8-9.7c5.06-2.33 10.93-3.5 17.6-3.5 3.2 0 6.6.4 10.2 1.2s7.2 2.17 10.8 4.1 6.93 4.63 10 8.1c1.07.8 1.57 1.77 1.5 2.9s-.57 2.17-1.5 3.1c-.8.53-1.67.8-2.6.8s-1.73-.4-2.4-1.2c-3.47-3.87-7.5-6.73-12.1-8.6s-9.5-2.8-14.7-2.8c-4.4 0-8.5.73-12.3 2.2s-6.9 3.63-9.3 6.5-3.6 6.5-3.6 10.9c.27 4.13 1.7 7.53 4.3 10.2s6.06 4.87 10.4 6.6c4.33 1.73 9.23 3.33 14.7 4.8 4.4 1.07 8.5 2.3 12.3 3.7s7.13 3.17 10 5.3 5.13 4.8 6.8 8 2.5 7.2 2.5 12c0 5.6-1.5 10.43-4.5 14.5s-7.13 7.2-12.4 9.4-11.3 3.3-18.1 3.3a49.85 49.85 0 0 1-20-4.2c-6.4-2.8-12.2-7.4-17.4-13.8zm174-83.8c1.2 0 2.17.4 2.9 1.2a4.02 4.02 0 0 1 1.1 2.8v58.2c0 12.93-3.63 22.63-10.9 29.1s-16.9 9.7-28.9 9.7-21.43-3.23-28.7-9.7-10.9-16.17-10.9-29.1v-58.2c0-1.07.4-2 1.2-2.8s1.73-1.2 2.8-1.2c1.2 0 2.17.4 2.9 1.2a4.02 4.02 0 0 1 1.1 2.8v58.2c0 10.13 2.83 17.87 8.5 23.2s13.37 8 23.1 8 17.63-2.67 23.3-8 8.5-13.07 8.5-23.2v-58.2a4.02 4.02 0 0 1 1.1-2.8c.73-.8 1.7-1.2 2.9-1.2zm32.4-3.6c.67 0 1.37.23 2.1.7s1.23 1.1 1.5 1.9l37 88.6-2 1.4 37.6-90c.67-1.73 2.07-2.6 4.2-2.6.67 0 1.47.27 2.4.8a2.59 2.59 0 0 1 1.4 2.4c0 .67-.07 1.17-.2 1.5a13.25 13.25 0 0 1-.4.9l-39.8 95.2c-.67 1.73-1.93 2.6-3.8 2.6-.8 0-1.57-.23-2.3-.7-.73-.46-1.23-1.1-1.5-1.9l-40-95c-.13-.27-.23-.57-.3-.9a4.34 4.34 0 0 1-.1-.9c0-1.07.33-2 1-2.8s1.73-1.2 3.2-1.2zm190.6 3.6c1.2 0 2.17.4 2.9 1.2a4.02 4.02 0 0 1 1.1 2.8v91.8c0 1.07-.4 2-1.2 2.8s-1.73 1.2-2.8 1.2c-1.2 0-2.17-.4-2.9-1.2a4.02 4.02 0 0 1-1.1-2.8v-28.4l3.2-2.6c0 4.27-1.07 8.6-3.2 13s-5.07 8.4-8.8 12-8.13 6.5-13.2 8.7-10.53 3.3-16.4 3.3c-8.93 0-16.9-2.33-23.9-7s-12.5-11-16.5-19-6-17-6-27 2.03-19.1 6.1-26.9 9.6-13.93 16.6-18.4 14.9-6.7 23.7-6.7c5.73 0 11.13 1.03 16.2 3.1s9.5 4.97 13.3 8.7 6.77 8.1 8.9 13.1 3.2 10.43 3.2 16.3l-3.2-5v-29a4.02 4.02 0 0 1 1.1-2.8c.73-.8 1.7-1.2 2.9-1.2zm-42 94.2c7.47 0 14.13-1.97 20-5.9s10.47-9.33 13.8-16.2 5-14.63 5-23.3-1.67-15.77-5-22.5-7.93-12.07-13.8-16-12.53-5.9-20-5.9-13.93 1.9-19.8 5.7-10.5 9.04-13.9 15.7c-3.4 6.67-5.1 14.33-5.1 23s1.67 16.43 5 23.3 7.93 12.27 13.8 16.2 12.53 5.9 20 5.9zm161.8-142.4c1.2 0 2.17.4 2.9 1.2a4.02 4.02 0 0 1 1.1 2.8v140c0 1.07-.4 2-1.2 2.8s-1.73 1.2-2.8 1.2c-1.2 0-2.17-.4-2.9-1.2a4.02 4.02 0 0 1-1.1-2.8v-28.4l3.2-4.4c0 4.53-1.04 9.1-3.1 13.7-2.07 4.6-5 8.8-8.8 12.6s-8.23 6.83-13.3 9.1-10.53 3.4-16.4 3.4c-8.8 0-16.7-2.3-23.7-6.9s-12.53-10.87-16.6-18.8-6.1-16.9-6.1-26.9 2.03-18.97 6.1-26.9 9.6-14.17 16.6-18.7 14.9-6.8 23.7-6.8c5.47 0 10.7 1.03 15.7 3.1a42.31 42.31 0 0 1 13.3 8.7c3.87 3.73 6.93 8.1 9.2 13.1s3.4 10.43 3.4 16.3l-3.2-5v-77.2a4.02 4.02 0 0 1 1.1-2.8c.73-.8 1.7-1.2 2.9-1.2zm-42 142.4c7.6 0 14.3-1.93 20.1-5.8s10.37-9.2 13.7-16 5-14.53 5-23.2-1.67-16.37-5-23.1-7.93-12.03-13.8-15.9-12.53-5.8-20-5.8-13.93 1.93-19.8 5.8-10.5 9.17-13.9 15.9-5.1 14.43-5.1 23.1 1.7 16.2 5.1 23 8.03 12.17 13.9 16.1 12.46 5.9 19.8 5.9zm157.8-94.2c1.2 0 2.17.4 2.9 1.2a4.02 4.02 0 0 1 1.1 2.8v58.2c0 12.93-3.63 22.63-10.9 29.1s-16.9 9.7-28.9 9.7-21.43-3.23-28.7-9.7-10.9-16.17-10.9-29.1v-58.2c0-1.07.4-2 1.2-2.8s1.73-1.2 2.8-1.2c1.2 0 2.17.4 2.9 1.2a4.02 4.02 0 0 1 1.1 2.8v58.2c0 10.13 2.83 17.87 8.5 23.2s13.37 8 23.1 8 17.63-2.67 23.3-8 8.5-13.07 8.5-23.2v-58.2a4.02 4.02 0 0 1 1.1-2.8c.73-.8 1.7-1.2 2.9-1.2z" stroke="#174177" stroke-miterlimit="10" stroke-width="2"/><path d="M96.98 213.81l-2.39.45-2.74.46c-.54.06-1.08.24-1.66.37l-1.82.43-1.97.46-2.09.61-4.46 1.43-4.66 1.81-2.36 1.01c-.8.33-1.55.77-2.32 1.14l-2.32 1.15-2.24 1.26-4.29 2.58-1.99 1.33-1.9 1.3-3.38 2.51-2.79 2.23-2.1 1.8-1.33 1.19-.46.44.36-.52a39.01 39.01 0 0 1 2.9-3.56l2.53-2.6 1.51-1.43 1.68-1.46 3.79-2.96 2.1-1.44 1.08-.72 1.13-.66 2.29-1.34 2.38-1.22 2.42-1.14 2.45-1.01c1.6-.73 3.29-1.15 4.88-1.67 1.58-.56 3.19-.82 4.67-1.16l2.18-.45 2.08-.25 3.62-.36 2.78-.03 2.43.02zm-57.31 15.74l1.24-2.09 1.46-2.37c.31-.44.53-.97.81-1.49l.88-1.65.95-1.78.91-1.97 1.86-4.3 1.71-4.7.79-2.44c.28-.81.44-1.67.67-2.5l.66-2.5.52-2.52.89-4.93.31-2.37.27-2.28.34-4.2.16-3.57.03-2.77-.02-1.79-.02-.63.15.62.36 1.76.41 2.77.29 3.62.08 2.08-.01 2.22-.28 4.8-.3 2.53-.16 1.29-.25 1.29-.5 2.6-.65 2.59-.73 2.57-.86 2.51c-.51 1.68-1.31 3.23-1.95 4.77-.61 1.56-1.48 2.93-2.2 4.28l-1.1 1.94-1.18 1.73-2.11 2.96-1.81 2.11-1.61 1.81zm75.54-106.24l.44 1.62.5 1.81.73 2.28 1.05 2.56c.34.9.86 1.76 1.33 2.65.51.88 1.12 1.72 1.78 2.5l1.03 1.15c.36.34.78.62 1.19.97.7.75 1.73 1.05 2.54 1.62l2.84 1.06 2.93.59 2.73.2 1.27.11h1.14 1.87l1.7.09s-.53.28-1.53.7l-1.81.75-1.13.44c-.42.11-.85.17-1.31.27l-3.03.5c-1.11 0-2.28 0-3.53-.09-1.2-.25-2.48-.5-3.73-.97-1.18-.61-2.5-1.09-3.51-2.03l-1.54-1.36-1.28-1.54c-.47-.5-.7-1.13-1.03-1.67-.3-.58-.64-1.11-.83-1.7a15.98 15.98 0 0 1-1.03-3.32c-.3-1.06-.31-2.11-.41-3.04-.09-1.87.05-3.42.23-4.5l.39-1.65zm14.62 3.51s.45.3 1.3.75c.85.47 2.2 1 3.88 1.59 1.69.51 3.8 1 6.24 1.15 2.44.06 5.15 0 7.99-.81 1.44-.25 2.81-.98 4.34-1.47 1.37-.76 2.9-1.34 4.31-2.29s2.91-1.79 4.25-3.01l2.12-1.68c.69-.59 1.31-1.28 2-1.9l2.03-1.97 1.97-2.15 4.12-4.5 8.49-9.11 4.34-4.49 4.12-4.57c2.75-3.04 5.55-5.92 8.21-8.77 2.62-2.86 5.28-5.54 7.77-8.1 2.43-2.62 4.81-5.06 6.99-7.27 4.34-4.49 8.12-8.13 10.74-10.71l4.18-3.96s-1.15 1.76-3.25 4.77c-2.06 3-5.18 7.23-8.99 12.2-3.78 5.01-8.33 10.74-13.42 16.71l-7.86 9.19-4.12 4.69-4.25 4.56-8.64 8.96c-1.4 1.48-2.84 2.92-4.28 4.35-.75.72-1.34 1.37-2.19 2.15l-2.34 2.03c-.78.65-1.5 1.36-2.31 1.95l-2.47 1.72c-1.56 1.19-3.37 2.03-5 2.95-.81.47-1.72.79-2.59 1.14-.84.33-1.68.7-2.52.98-1.78.37-3.41.97-5.09 1.06-3.28.56-6.4.17-8.99-.33-2.63-.55-4.73-1.5-6.39-2.36-1.64-.92-2.81-1.8-3.56-2.45-.78-.64-1.13-1.01-1.13-1.01zm44.81-78.95s-4.3 3.11-10.08 8.38c-1.47 1.28-2.9 2.82-4.55 4.34-1.56 1.59-3.18 3.25-4.81 5.06-1.66 1.78-3.31 3.65-4.9 5.62-.81 1-1.68 1.94-2.43 2.96l-2.31 3.11c-1.62 2.01-2.96 4.22-4.4 6.31-1.44 2.07-2.66 4.28-3.94 6.32-.67 1.03-1.19 2.09-1.73 3.12l-1.62 3.03c-1.11 1.93-1.93 3.87-2.77 5.63-.78 1.79-1.65 3.37-2.21 4.85l-1.56 3.84-1.44 3.34s.2-1.29.65-3.57l.84-4.1c.3-1.59.94-3.31 1.51-5.21.61-1.9 1.22-3.99 2.17-6.07.93-2.08 1.73-4.39 2.96-6.57l1.8-3.37c.59-1.15 1.22-2.28 1.97-3.37 1.46-2.19 2.8-4.51 4.45-6.62l2.44-3.17c.84-1.05 1.75-2.01 2.59-3.03 1.65-2.03 3.56-3.82 5.33-5.57 1.72-1.78 3.62-3.31 5.34-4.81 1.81-1.44 3.49-2.78 5.14-3.9 1.62-1.15 3.19-2.12 4.56-2.97 1.37-.84 2.66-1.5 3.68-2.04 2.03-1.04 3.31-1.53 3.31-1.53zM71.36 152.35s.75-.03 2.03-.17a78.7 78.7 0 0 0 5.2-.73c1.06-.17 2.2-.44 3.37-.69 1.2-.25 2.39-.69 3.65-1 1.23-.45 2.54-.83 3.76-1.4.64-.25 1.26-.53 1.9-.78l1.82-.97c1.27-.55 2.37-1.39 3.54-2.07 1.17-.69 2.17-1.58 3.26-2.33 1.01-.78 1.89-1.72 2.84-2.48.94-.77 1.64-1.67 2.4-2.42.71-.81 1.48-1.47 2-2.18a29.92 29.92 0 0 1 1.48-1.76c.83-.98 1.36-1.54 1.36-1.54s-.22.72-.65 1.93c-.22.62-.5 1.37-.86 2.22-.3.91-.86 1.75-1.42 2.75-.61.97-1.14 2.09-2.03 3.06-.86 1-1.64 2.19-2.71 3.14-.55.48-1.08.98-1.62 1.48-.55.51-1.11 1.03-1.76 1.43-1.25.84-2.5 1.78-3.91 2.44l-2.06 1.03-2.17.81c-1.4.58-2.89.78-4.26 1.17-1.44.23-2.81.45-4.11.51-1.31.09-2.54.09-3.68.01-1.14-.01-2.15-.2-3.07-.33-.91-.16-1.69-.31-2.32-.49-1.26-.33-1.97-.64-1.97-.64zm60.2-2.47l-3.01 6.54-1.41 3.12-1.54 3.48c-.53 1.19-1 2.47-1.56 3.71-.45 1.3-1.05 2.56-1.5 3.87-.47 1.31-.98 2.59-1.39 3.9-.42 1.29-.91 2.56-1.22 3.82-.38 1.25-.77 2.45-1.05 3.61-.25 1.17-.62 2.28-.81 3.31s-.42 1.97-.62 2.81l-.39 2.21c-.23 1.25-.4 1.97-.4 1.97s-.17-.69-.4-1.95c-.13-.64-.28-1.4-.38-2.29-.06-.89-.11-1.9-.14-2.99-.08-1.12.03-2.31.13-3.57.08-1.27.25-2.59.53-3.93.24-1.37.55-2.76.95-4.15.33-1.42.86-2.79 1.34-4.17 1.03-2.76 2.33-5.4 3.69-7.77 1.37-2.37 2.79-4.49 4.17-6.21 2.67-3.46 5.02-5.31 5.02-5.31z"/><g fill-rule="evenodd"><path d="M88.33 167.97c6.7 0 12.13 5.4 12.13 12.08s-5.4 12.11-12.09 12.12c-6.69 0-12.11-5.41-12.11-12.11a12.09 12.09 0 0 1 12.08-12.1zm-4.82 5.7a.63.63 0 0 0 .03.13c-.02.33-.05.64-.08.97 0 .11-.09.14-.19.11q-.26-.03-.34.19c-.06.17-.16.2-.33.16-.12-.03-.25-.06-.37-.03-.25.06-.5.17-.77.27a.1.1 0 0 0-.06.08c-.01.16-.14.2-.28.22-.12.03-.25.05-.36.09-.06.02-.13.09-.13.15 0 .25-.14.44-.3.59-.05.05-.16.06-.23.1-.03-.1-.1-.19-.08-.25.02-.15.08-.31.13-.5-.23-.14-.47-.31-.73-.44-.14-.08-.32-.09-.48-.16-.27-.09-.41-.06-.58.16-.03.03-.08.06-.11.09-.25.16-.35.4-.33.69.01.19.08.25.25.19.12-.02.25-.03.33.12-.08.1-.2.17-.23.28-.08.22-.17.41-.05.66.07.11 0 .31-.03.44-.05.19 0 .25.16.31.16.05.33.09.47.17s.25.2.37.33c.05.03.06.11.1.16.17.2.19.5 0 .7-.13.16-.17.33-.17.53 0 .27-.05.51-.33.62-.36.14-.58.42-.77.72-.12.2-.3.36-.44.55-.16.22-.22.51-.14.79.61 2.33 1.83 4.29 3.68 5.81 2.78 2.28 5.98 3.14 9.5 2.37 4.09-.86 6.85-3.34 8.36-7.21a.48.48 0 0 0-.13-.62c-.15.28-.2.28-.42.01a1.99 1.99 0 0 0-.25-.31c-.12-.12-.27-.22-.34-.34-.19-.27-.33-.55-.5-.81-.22.11-.25.09-.39-.13 0-.03-.02-.03-.03-.03-.2-.2-.56-.23-.81-.06-.03.02-.06.05-.11.06-.19.09-.37.25-.64.13.09.19.11.22.28.23.22.02.3.11.3.33-.03.34-.17.59-.43.81-.03.03-.09.06-.09.09 0 .28-.19.42-.33.61-.1.11-.16.24-.23.33-.03.03-.11.06-.14.03-.08-.03-.14-.1-.2-.17-.26-.26-.44-.62-.83-.76-.03 0-.06-.05-.08-.09-.06-.16-.16-.22-.33-.23-.05 0-.12-.03-.16-.08a7.99 7.99 0 0 1-.54-.62.996.996 0 0 1-.24-.62c-.02-.16-.06-.3-.11-.44a.498.498 0 0 0-.1-.11c-.02.02-.03.02-.04.03.03.01.04.04.06.08.02.08.06.17.03.24-.06.14-.17.11-.28-.08-.09-.16-.12-.16-.23-.03-.06.08-.11.16-.19.26l-.69-.86c.02-.16.13-.19.28-.22.13-.03.26-.09.38-.16.17-.16.34-.22.56-.2.16 0 .31-.05.45-.11.03 0 .08-.09.08-.16a.284.284 0 0 0-.14-.09 4.51 4.51 0 0 0-.33-.13c-.08 0-.2-.03-.25 0-.26.16-.52.25-.74-.1-.01 0-.01.03-.03.05v.33a2.49 2.49 0 0 0-.3-.19 2.38 2.38 0 0 1-.17.31c-.05.09-.08.16-.19.09-.06-.04-.13-.06-.19-.09-.19-.03-.25.09-.28.23-.05-.02-.1-.05-.13-.05.03.09.1.19.17.23.09.06.09.13.03.2-.05.08-.06.16-.09.25-.1 0-.2-.03-.25-.17-.03-.14-.11-.23-.22-.33-.11-.08-.17-.16-.16-.31.01-.05-.06-.12-.11-.17-.2-.14-.47-.17-.59-.42 0 0-.03-.03-.05-.03-.14.11-.09-.09-.17-.09-.09.08-.11.19-.03.28.06.06.11.14.19.22.03.03.08.1.14.12a2.12 2.12 0 0 1 .42.22c.05.01.06.06.11.11-.06.02-.09 0-.14-.01-.03 0-.08 0-.09.01v.08c.14.19-.06.25-.09.36-.03-.11-.02-.25-.08-.33-.08-.1-.22-.16-.31-.25-.17-.13-.33-.27-.49-.41-.06-.06-.1-.13-.17-.19-.12.1-.25.17-.36.25-.1-.03-.19-.08-.28-.09-.05 0-.14.08-.14.09.01.19-.1.22-.22.28-.13.05-.3.17-.3.25 0 .16-.05.25-.14.31-.11.08-.22.19-.39.16-.11-.02-.23 0-.38 0-.05-.2-.25-.22-.41-.25-.02-.11-.02-.22-.02-.31 0-.03 0-.11.03-.16.14-.19.17-.4.14-.65.08-.02.17-.06.25-.05.11.01.22.08.33.11.47.11.44.19.53-.28.03-.06-.02-.14-.05-.19-.05-.09-.13-.19-.19-.27-.03-.05-.06-.11-.09-.16.06-.02.13-.03.19-.02.06 0 .11.03.17.08v-.23c.08.03.16.09.19.09.2-.14.42-.27.58-.44.09-.09.16-.19.28-.22.23-.03.28-.12.25-.28-.08-.28-.05-.36.18-.53.02.09.05.18.08.28-.03.02-.08.06-.12.09.14.06.14.13 0 .19.08.05.15.08.23.1.08.03.17.03.25.03.19 0 .3-.3.53-.13.19-.12.17-.26.13-.43-.05-.12.05-.2.16-.2.06 0 .1-.04.12-.06-.05-.09-.12-.16-.11-.22s.08-.11.14-.17c-.1 0-.2.03-.27.02-.14-.06-.23-.42-.17-.58.02-.05 0-.11 0-.17-.08.05-.09.09-.12.14-.05.03-.08.09-.12.13-.13.12-.11.34.02.47.11.09.11.19.01.3-.03.02-.08.05-.08.08a.7.7 0 0 1-.22.53c-.1.13-.14.1-.2.03-.03.06-.08.12-.14.22 0-.11-.01-.19-.01-.24.04-.08.14-.14.12-.17-.03-.16-.11-.31-.17-.5-.06.06-.12.12-.18.16-.05.04-.14.09-.16.06-.05-.03-.19-.03-.13-.19.03-.09-.01-.22-.01-.31-.03-.17.04-.33.19-.39.29-.14.39-.42.5-.68.05-.11.06-.2.12-.3.13-.16.25-.28.38-.41.05-.04.11-.06.13-.11.04-.14.17-.13.28-.13a1.83 1.83 0 0 0 .33.02c.17-.02.34-.05.52-.05.33 0 .45.11.55.42.09-.06.19-.11.26-.16-.08-.16-.16-.3-.2-.43 0-.03.05-.1.08-.13.17-.06.36.1.34.35.05-.06.08-.1.1-.14.09-.16.19-.3.28-.45.08-.16.17-.28.38-.12.05-.06.09-.12.14-.12.17 0 .25-.13.3-.25.05.03.09.06.17.09.02-.06.03-.11.02-.14-.1-.2.02-.26.19-.3h.47c-.03-.08-.01-.15-.05-.22-.17-.27-.1-.53.01-.78.03-.06.16-.09.22-.12.12-.03.16.06.19.12.11.25.2.53.36.75.09.13.22.23.17.42.11-.16.08-.3-.03-.41-.09-.08-.12-.19-.19-.28-.03-.04-.05-.12-.08-.17a.68.68 0 0 1 .01-.59h.05c.03.09.08.19.11.28l.45-.47c-.05-.28-.05-.3.22-.44a6.93 6.93 0 0 1 .41-.16c.01-.03.01-.05.01-.06-.09-.06-.2-.09-.29-.15v-.05s.03-.08.06-.14c-3.08-1.97-6.37-2.44-9.89-1.38.26.19.5.34.72.52.11.08.2.2.3.3-.01 0-.03.03-.04.03-.14.03-.3.03-.42.08-.14.05-.26.15-.37.23h-.03c-.17-.06-.26.09-.4.13-.1.05-.19.12-.28 0 .01-.06.03-.11.05-.17-.25.11-.3.36-.36.56-.02.08.06.2.11.33-.03.06-.11.16-.16.24.06.08.11.12.16.17.2.22.22.34.08.59-.03.06-.02.16.02.22.03.09.12.17.14.26.03.08-.02.17-.06.24-.03.03-.14 0-.2-.03-.05 0-.1-.06-.13-.09-.05.17-.06.33-.14.47-.09.19-.25.14-.45.03-.03.16-.08.28-.12.42.12-.02.22-.05.33-.06zm-.52-2.09c-.3.27-.33.3-.73.41-.16.05-.31.11-.47.17-.33.14-.39.31-.26.64a10.92 10.92 0 0 1 .31.71 27.31 27.31 0 0 0 .72-.76c.09-.08.16-.09.26 0 .09.08.2.14.31.22l.05-.05c-.08-.09-.12-.2-.2-.28-.1-.13-.1-.27 0-.34.08-.05.2-.02.33-.03 0-.02.03-.03.05-.08.14-.22.14-.28-.08-.42a1.54 1.54 0 0 1-.28-.19zm16.21 11.55c.2-.69.33-1.37.42-2.07a.36.36 0 0 0-.2-.35c-.09.1-.19.16-.28.22-.03.05-.08.08-.09.12l-.25.59c-.05.15-.17.31-.14.44.09.37.12.81.55 1.04zm-5.63-4.61s-.05-.03-.06-.06c-.11.1-.23.17-.31.28-.17.19-.17.34 0 .53.11.11.23.19.33.31.06.06.11.16.11.25.03.25.06.3.33.27.08-.02.16-.03.26-.06-.06-.09-.11-.16-.16-.22-.06-.09-.14-.17-.15-.27-.05-.19-.17-.28-.34-.34-.25-.09-.3-.22-.16-.44.06-.07.11-.17.16-.25zm-10.59-8.49c-.1.05-.16.09-.27.16.08.06.12.14.2.2.08.08.05.14-.03.17-.06.03-.12.05-.19.06-.12 0-.17.09-.15.19.03.16.08.33.11.48h.04c.02-.06.07-.12.07-.2-.03-.28.12-.44.37-.53.05-.03.08-.06.1-.06-.08-.16-.17-.31-.25-.47zm12.26 11.65c-.06-.01-.08-.03-.08-.01-.02.01-.05.01-.06.01-.27.1-.53.22-.7-.14-.01-.02-.08-.02-.12 0 0 0-.03.08 0 .11.06.04.14.13.22.13.16.03.28.09.36.25.04.12.17.12.23.02.06-.11.08-.24.16-.36zm-5.23-6.09h.08c.02-.06.02-.13.03-.22.09-.03.22-.06.34-.09-.02-.09-.03-.19-.05-.26-.17.06-.36.14-.56.2.05.13.11.25.16.37z"/><path d="M94.16 184.11c-.02.22-.03.37-.08.53a2.27 2.27 0 0 1-.67 1.12l-.41.41c-.33.33-.39.72-.17 1.12.14.25.13.53.08.78a.51.51 0 0 1-.22.28c-.26.12-.42.33-.53.59l-.31.66c-.08.16-.19.31-.31.48-.12.19-.3.33-.55.33l-.8.09c-.12.02-.2-.03-.23-.19s-.12-.28-.2-.42l-.26-.45c-.09-.16-.13-.31-.3-.44-.23-.13-.3-.47-.22-.72.03-.06.05-.12.08-.19.19-.25.14-.5 0-.75-.08-.14-.09-.28-.28-.38-.32-.14-.43-.44-.36-.78.08-.34 0-.42-.34-.39-.16.01-.28.01-.37-.14-.05-.05-.14-.06-.22-.06-.09 0-.2 0-.28.06-.23.17-.5.19-.78.2l-.28.06c-.11.02-.22.02-.3-.04-.55-.28-.94-.74-1.2-1.3-.03-.08-.01-.17.02-.25.09-.26.14-.48.06-.76-.06-.23.08-.45.23-.63.02-.03.07-.03.08-.06.14-.25.34-.47.63-.59.04 0 .08-.13.09-.19.03-.19.14-.33.28-.44.06-.06.16-.14.22-.22.09-.16.19-.16.36-.11.09.05.26.05.36-.02.23-.12.5-.14.75-.16l.78-.06c-.03.19-.06.35-.11.52l1.14.36c.02-.08.02-.13.02-.16.03-.19.19-.28.34-.19a1.39 1.39 0 0 0 .92.06c.16-.03.33-.02.48-.02.05.02.1.06.1.09a2.68 2.68 0 0 1 .02.39c.02.06.02.15.06.2.06.11.14.23.24.33.17.14.31.28.34.52a.12.12 0 0 0 .05.09c.3.2.39.61.75.75a.81.81 0 0 1 .22.23c.05.13.14.14.25.11l.5-.17c.11-.05.22-.08.36-.13zm-9.3-12.81c-.06-.17-.22-.27-.19-.48.02-.24.1-.31.35-.28.04 0 .09.05.11-.06 0 0 .14-.01.2 0 .09 0 .19.06.3.06.05 0 .11-.06.17-.06l.62.03c.11.01.22.03.31.09-.03 0-.08 0-.12.01.04.05.09.09.14.14 0-.03 0-.05.01-.06h.22l.42.08c.11.02.16.05.2.14.02.06.08.13.13.16.2.12.42.23.64.34.05.03.08.06.08.09 0 .22.14.34.25.47l-.03.53c0 .04.05.09.08.16.03.04.06.11.09.17-.08.05-.14.08-.22.09-.12.02-.28 0-.41.03-.08.02-.12.11-.2.17-.11.11-.22.23-.36.31-.14.11-.3.19-.47.28.06.08.13.14.19.22-.04.08-.09.16-.16.25l-.14-.15c0 .12.08.25-.11.28h-.37s-.05.03-.09.09v-.09c-.1-.02-.19-.02-.25-.03-.17 0-.36-.06-.51-.03-.14.03-.27.17-.39.25-.05.03-.11.03-.17.06-.06.22-.31.27-.62.06 0 .05 0 .08-.02.12h-.06c-.01-.06-.01-.12-.05-.2-.03-.08-.1-.14-.12-.2.11-.12.11-.5.02-.59a2.56 2.56 0 0 0 .22-.39c.1-.2.19-.42.27-.62.04.01.11.01.19.01-.08-.09-.24-.09-.19-.26.03-.16.12-.2.28-.22-.34-.05-.02-.27-.14-.39.06-.03.09-.03.14-.06l-.34-.48c.06-.01.09-.01.12-.03zm9.43 16.62c-.03.14-.08.28-.12.42l-.23.8c-.03.08-.09.14-.17.19-.11.06-.25.12-.36 0-.12-.11-.12-.25-.06-.41.06-.12.06-.31.06-.47 0-.31-.02-.31.27-.42.19-.06.23-.2.3-.36.03-.06.1-.1.14-.16.05.06.11.11.14.17.03.08.03.16.05.23zm-3.12-15.48c.02-.13.02-.23.05-.34l.3-.69c0-.01.02-.03.03-.03l.69-.53c.06-.03.17 0 .25 0 0 .08 0 .19-.03.23-.11.14-.27.28-.39.41-.27.23-.44.52-.44.88 0 .05-.05.11-.09.12-.19.08-.28.05-.36-.05zm-4.86 5.4c.09-.09.2-.14.2-.2.01-.08-.02-.2-.14-.19-.03-.17-.05-.36-.06-.51.03 0 .08 0 .09-.03.06-.16.16-.16.3-.1-.03.03-.06.08-.11.13.06.03.14.04.22.06-.08.09-.13.19-.17.22l.27.69c.11 0 .14.05.06.19a.25.25 0 0 1-.33.19c-.17-.03-.34 0-.56 0 .12-.06.22-.13.31-.19l-.19-.09c-.03-.09.25-.03.11-.16zm-.5-2.75s.1-.03.19-.09c-.09-.02-.16-.03-.23-.06l.26-.2c.03.11.03.2.05.27.17 0 .34-.02.56-.03.03.06.12.16.12.25.02.09-.06.22-.12.27-.12.08-.3.09-.45.14-.03 0-.1-.03-.13-.06l-.25-.19c.03-.03.11-.06.11-.11-.01-.06-.06-.11-.11-.17zm-6.08 1.84c-.06-.06-.19-.13-.09-.31.17.16.39.19.47.44.03.15.17.28.28.41.06.09.14.2 0 .37l-.5-.47c0-.02-.02-.03-.03-.03-.06-.03-.17-.04-.17-.08-.02-.09.03-.2.05-.33zm12.2-3.81c-.16.06-.3.16-.44.16-.12.02-.31-.05-.34-.12a.571.571 0 0 1 .02-.46c.02-.08.19-.11.29-.14.02-.02.08.05.08.06-.01.23.13.34.31.42.03.01.05.05.08.08z"/><path d="M85.78 177.48c.1-.06.16-.11.2-.14.1-.06.17-.09.24 0 .03.05.02.14 0 .22 0 0-.02.03-.03.03-.03.09-.03.25-.08.27-.13.06-.28.08-.42.11-.02-.03-.03-.03-.05-.05.03-.08.08-.14.11-.23.02-.08.02-.16.03-.2zm5.19-7.26a.77.77 0 0 0 .17.11v.04l-.55.14c-.02-.08-.02-.11-.03-.16-.08-.02-.14-.02-.23-.02.03-.16.14-.19.23-.14.16.08.28 0 .39-.08.16-.09.3-.22.45-.31.03-.03.11-.03.17-.03-.03.03-.06.09-.11.12a2.8 2.8 0 0 1-.5.31zm-.97.14l.14.36c.02.02-.02.03-.03.06-.03-.03-.07-.06-.1-.1-.17.22-.42.1-.64.13-.02 0-.03-.03-.03-.05.2-.14.42-.26.65-.4zm-1.24 10.32v.28l-.42-.19v-.07c.08 0 .14 0 .2-.01.06 0 .14-.02.22-.02zm-.99-.1l-.05-.37.16-.08c.12.17.08.36-.11.45zm10.69 3.48c-.14-.08-.2-.2-.22-.36.02-.01.03-.03.05-.03.08.11.16.23.22.35-.02.03-.03.03-.05.05zm-.41-.7l-.16-.31s.03-.01.05-.03c.08.03.16.09.23.12l-.13.22zm-8.01-2.35h.38v.05c-.12 0-.23 0-.36.02 0-.02 0-.05-.02-.06z"/></g><path d="M78.17 206.93c.34.27.28.63-.12.79l-16.38 6.61c-.4.16-.68-.06-.62-.48l2.56-17.77c.06-.43.39-.56.73-.29l13.82 11.13ZM14.89 25.19S2.9 57.92 40.32 87.98c31.94 25.63 32.22 38.18 29.83 48.69 0 0-5.38-19.46-27.72-34.68-14.28-9.72-48.93-32.72-27.54-76.8Z"/><path d="M70.26 140.63l-1.04-3.71c-.04-.18-5.55-19.3-27.33-34.12l-.43-.29C26.8 92.52-6.49 69.17 15.05 24.78c0 0-10.53 33.21 25.89 62.44C73.28 113.21 73.59 126 71.11 136.9l-.86 3.74zM12.33 33.87C-.71 71.45 29.25 91.84 42.55 100.9l.44.28c16.99 11.58 24.23 25.4 26.86 31.76 1.24-9.65-2.15-21.74-30.13-44.2-25.71-20.65-28.33-42.83-27.39-54.87zM1.61 67s4.86 21.39 27.87 34.66c23 13.27 39.47 24.32 38.51 40.32 0 0-9.03-14.72-29.61-22.51C17.22 111.49-2.93 96.82 1.61 67z"/><path d="M68.75 145.13l-1.6-2.64c-.07-.12-9.12-14.53-29.11-22.1C9.47 109.61-3.11 91.58.65 66.86l.78-5.04 1.12 4.98c.06.21 5.07 21.13 27.4 34.03 22.72 13.11 40.01 24.48 39.01 41.22l-.21 3.08zM2.08 71.51c-1.65 21.72 10.39 37.16 36.66 47.07 15.64 5.91 24.63 15.66 28.24 20.32-1.28-14.05-17.33-24.46-38-36.39-16.85-9.75-24.17-23.95-26.9-31zm2.3 31.76s11.17 16.53 39.19 23.99c24.22 6.44 22.79 22.26 22.79 22.26s-2.34-4.17-14.42-8.56c-16.1-5.85-46.85-15.23-47.56-37.69z"/><path d="M67.05 152.71L65.52 150c-.07-.12-2.59-4.02-13.91-8.13l-3.37-1.21c-16.52-5.89-44.14-15.73-44.83-37.35l-.12-3.34 1.89 2.77c.1.16 11.34 16.32 38.66 23.57 24.72 6.57 23.51 23.13 23.5 23.29l-.28 3.11zM5.67 106.48c3.21 18.09 28.05 26.95 43.21 32.35 1.2.41 2.31.83 3.37 1.21 7.13 2.59 10.99 5.14 12.98 6.86-.72-4.57-4.38-14.05-21.91-18.71-21.6-5.73-33.24-16.68-37.65-21.72zm9.64 22.81s22.3 13.67 36.62 14.82c14.3 1.15 13.85 8.8 13.85 8.8s-17.19 6.52-34.93-4.67c-17.74-11.17-15.54-18.95-15.54-18.95z"/><path d="M28.33 150.43s19.3 6.85 37.45 3.05c0 0-3.23 14.11-17.86 12.19-14.72-1.95-19.59-15.23-19.59-15.23Z"/><path d="M41.94 166.95s16.15.82 23.43-10.05c0 0 1.58 15.23-10.86 16.55-10.09 1.04-12.57-6.5-12.57-6.5zm12.48 10.69s6.56 5.76 11.82-3.36c0 0-1.28-2.71-1.13-6.6 0 0-4.13 9.64-10.68 9.96z"/><path d="M59.18 180.41c-3.05 0-5.3-1.96-5.39-2.04l-1.81-1.59 2.4-.12c5.88-.28 9.81-9.28 9.84-9.37l2.09-4.86-.24 5.27c-.15 3.61 1.03 6.13 1.05 6.16l.22.44-.27.44c-2.68 4.68-5.77 5.66-7.9 5.66Zm-2.12-2.36c.62.24 1.33.41 2.12.41 2.22 0 4.24-1.43 5.98-4.27-.24-.57-.56-1.62-.79-3.03-1.53 2.45-4.01 5.63-7.31 6.89ZM252.85 227.3s-30.35 17.19-66.12-14.81c-30.52-27.28-42.93-25.52-52.91-21.44 0 0 20.06 2.11 38.74 21.67 11.93 12.47 40.3 42.9 80.29 14.57Z"/><path d="M220.18 239.97c-22.92 0-39.19-17.05-47.97-26.21l-.32-.38c-18.21-19.03-37.97-21.33-38.18-21.36l-3.83-.4 3.58-1.46c2.9-1.19 6.46-2.41 10.97-2.41 10.96 0 24.63 7.64 42.96 24.03 14.23 12.71 29.2 19.17 44.49 19.17 12.41 0 20.98-3.64 20.98-3.64-11.14 7.9-21.75 12.67-32.67 12.67zm-82.63-49.22c6.69 1.53 21.51 6.42 35.72 21.3l.36.39c8.54 8.93 24.45 25.59 46.55 25.59 7.98 0 16.12-2.22 24.28-6.64-3.39.83-7.61 1.5-12.59 1.5-15.79 0-31.2-6.62-45.78-19.65-17.94-16.06-31.18-23.53-41.66-23.53-2.59 0-4.87.44-6.87 1.05zm76.24 56.5s-21.89-1.28-38.78-21.81c-16.88-20.51-30.46-34.93-46.07-31.36 0 0 15.99 6.48 27.04 25.5 11.38 19.57 29.14 37.04 57.81 27.67z"/><path d="M198.49 250.83c-16.91 0-31.5-10.34-43.34-30.76-10.73-18.48-26.42-25.03-26.6-25.1l-2.86-1.15 3-.69c1.65-.37 3.33-.57 4.96-.57 14.39 0 27.59 14.61 42.11 32.29 16.41 19.95 37.86 21.42 38.04 21.45l5.15.29-4.89 1.59c-5.39 1.77-10.63 2.65-15.59 2.65zm-66.34-56.28c5.15 2.8 16.29 10.08 24.65 24.54 11.64 20.04 25.28 29.79 41.69 29.79 3.45 0 7.07-.46 10.76-1.36-7.4-1.53-22.63-6.42-34.98-21.45-14.73-17.93-27.99-32.61-42.12-31.53zm45.39 55.94s-18.15-8.33-30.08-34.75c-10.32-22.84-25.68-18.83-25.68-18.83s4.49 1.63 10.81 12.83c8.42 14.92 22.68 43.71 44.95 40.75z"/><path d="M174.37 251.67c-19.6 0-32.41-23.06-40.89-38.33l-1.74-3.11c-5.98-10.61-10.26-12.39-10.3-12.4l-2.8-1.09 2.89-.77s1.18-.29 2.99-.29c5.59 0 16.11 2.55 23.83 19.67 11.67 25.8 29.43 34.18 29.61 34.26l3.03 1.4-3.33.44c-1.09.14-2.21.22-3.3.22zm-49.81-54.05c2.03 1.69 5.17 5.07 8.87 11.64l1.76 3.15c8.21 14.81 20.65 37.17 39 37.32-5.72-3.54-18.42-13.22-27.61-33.58-7.27-16.09-16.89-18.53-22.02-18.53zm25.53 46.35s-17.14-19.77-20.62-33.71c-3.46-13.94-10.93-12.23-10.93-12.23s-3.62 18.03 10.31 33.71c13.93 15.66 21.24 12.23 21.24 12.23z"/><path d="M127.09 234.57s-9.9-17.92-9.15-36.42c0 0-13.39 5.48-9.07 19.59 4.33 14.2 18.22 16.82 18.22 16.82Z"/><path d="M108.58 223.84s-3.45-15.76 6.07-24.72c0 0-15.28.92-14.53 13.4.62 10.12 8.46 11.31 8.46 11.31zm-12.6-10.55s-6.75-5.51 1.38-12.2c0 0 2.89.83 6.7.03 0 0-8.84 5.66-8.09 12.17z"/><path d="m97.22 215.56-1.85-1.5c-.12-.11-2.98-2.48-2.99-6.13 0-2.65 1.47-5.22 4.39-7.6l.38-.31.49.13s1.24.34 3.06.34c1.08 0 2.14-.1 3.18-.31l5.14-1.09-4.44 2.84c-.09.04-8.32 5.41-7.64 11.24l.28 2.39Zm.41-13.41c-2.2 1.89-3.32 3.83-3.32 5.75 0 1.12.38 2.09.83 2.86.72-3.45 3.45-6.43 5.6-8.32-1.44-.04-2.51-.16-3.11-.28ZM73.62 186.16s-7.78-20.66 3.15-41.31c10.95-20.65 3.88-37.92-5.83-49.09C61.23 84.58 13.6 53.71 34.49 6.08c0 0-25.22 30.79-5.24 60.92 20 30.13 51.41 44.05 42.03 68.36-9.4 24.29-6.97 44.56 2.34 50.8Z"/><path d="m75.59 188.63-2.52-1.68c-10.5-7.01-11.64-28.87-2.71-51.95 5.91-15.25-5.05-26.43-18.93-40.57-7.49-7.65-15.97-16.31-22.98-26.9-20.17-30.38 5.04-61.74 5.3-62.05L38.23 0l-2.85 6.48c-17.31 39.48 12.95 67 29.22 81.79 3.06 2.83 5.51 5.04 7.07 6.83 7.54 8.69 18.37 26.77 5.97 50.19-10.59 19.99-3.18 40.29-3.12 40.5l1.07 2.83ZM30.66 13.72c-6.04 10.68-14.37 32-.59 52.76 6.92 10.43 15.32 19.01 22.75 26.59 14.37 14.66 25.71 26.24 19.36 42.65-8.72 22.59-6.93 40.08-.44 47.5-1.68-6.78-4.25-22.89 4.19-38.82 11.86-22.39 1.5-39.69-5.72-48-1.49-1.72-4.01-4.02-6.92-6.68-15.51-14.1-43.46-39.55-32.62-76ZM84.45 195.76s21.64 4.27 40.22-9.9c18.61-14.17 36.76-10.03 49.4-2.27 12.58 7.75 50.86 49.68 94.41 21.24 0 0-26.23 29.94-59.22 15.15-33-14.76-51.89-43.49-74.32-30.23-22.42 13.26-42.82 14.17-50.48 6.01Z"/><path d="M227.9 225.06c-6.42 0-12.84-1.4-19.03-4.18-11.61-5.2-21.54-12.14-30.32-18.28-11.7-8.19-21.83-15.29-31.79-15.29-3.89 0-7.6 1.08-11.34 3.27-12.42 7.34-25.02 11.39-35.48 11.39-7.19 0-12.8-1.9-16.21-5.55l-2.08-2.2 2.97.57s3.05.6 7.7.6c8.31 0 20.58-1.78 31.75-10.3 8.32-6.37 17.21-9.57 26.47-9.57 7.99 0 16.29 2.5 24.01 7.23 2.03 1.25 4.62 3.28 7.89 5.88 11.84 9.34 31.67 24.99 54.95 24.99 10.49 0 20.77-3.23 30.53-9.61l5.92-3.86-4.65 5.33c-.18.18-17.45 19.57-41.31 19.58Zm-81.14-39.7c10.55 0 20.91 7.25 32.91 15.64 8.72 6.09 18.56 12.98 30 18.09 5.95 2.68 12.08 4.02 18.23 4.02 14.77 0 26.93-7.73 33.8-13.32-7.87 3.83-16 5.76-24.28 5.76-23.96 0-44.11-15.9-56.16-25.42-3.09-2.43-5.77-4.55-7.69-5.73-7.43-4.55-15.38-6.95-23.01-6.95-8.81 0-17.3 3.1-25.29 9.18-11.59 8.84-24.29 10.7-32.93 10.7-1.83 0-3.4-.07-4.65-.19 3.03 1.89 7.2 2.87 12.25 2.87 10.11 0 22.36-3.93 34.51-11.11 4.01-2.37 8.06-3.55 12.31-3.55Z"/><rect x="71.65" y="187.27" width="5.88" height="19.77" rx=".79" transform="rotate(308.45 74.579 197.144)"/><path d="m69.03 208.92-31.56 31.15 28.06-34.33 3.5 3.18z"/></svg>